<svg xmlns="http://www.w3.org/2000/svg" viewBox="0 0 500 400" width="100%" height="100%">
  <!-- Background bubbles for decoration -->
  <circle cx="100" cy="300" r="80" fill="#f3d9fa" opacity="0.6" />
  <circle cx="400" cy="80" r="60" fill="#e2d4f8" opacity="0.5" />
  <circle cx="350" cy="350" r="40" fill="#f0c6ff" opacity="0.7" />
  
  <!-- Device and screen -->
  <rect x="120" y="80" width="260" height="180" rx="10" fill="#6c5ce7" />
  <rect x="130" y="90" width="240" height="160" rx="5" fill="#f1f1f1" />
  
  <!-- Login form elements -->
  <rect x="160" y="120" width="180" height="35" rx="5" fill="#e0e0e0" />
  <rect x="160" y="170" width="180" height="35" rx="5" fill="#e0e0e0" />
  <rect x="160" y="220" width="180" height="15" rx="5" fill="#8a3ab9" />
  
  <!-- Icons -->
  <circle cx="150" cy="137" r="8" fill="#8a3ab9" />
  <circle cx="150" cy="187" r="8" fill="#8a3ab9" />
  
  <!-- Stand -->
  <polygon points="220,260 280,260 270,290 230,290" fill="#6c5ce7" />
  
  <!-- Person silhouette -->
  <circle cx="350" cy="200" r="22" fill="#8a3ab9" opacity="0.9" />
  <path d="M320,280 C320,240 380,240 380,280" fill="#8a3ab9" opacity="0.9" />
  
  <!-- Decorative elements -->
  <path d="M50,150 L90,150 L70,180 Z" fill="#ff7675" />
  <rect x="400" y="160" width="30" height="30" rx="5" fill="#74b9ff" />
  <circle cx="60" cy="230" r="15" fill="#55efc4" />
</svg> 