<svg xmlns="http://www.w3.org/2000/svg" viewBox="0 0 500 400" width="100%" height="100%">
  <!-- Background bubbles for decoration -->
  <circle cx="400" cy="300" r="80" fill="#f3d9fa" opacity="0.6" />
  <circle cx="100" cy="80" r="60" fill="#e2d4f8" opacity="0.5" />
  <circle cx="150" cy="350" r="40" fill="#f0c6ff" opacity="0.7" />
  
  <!-- Paper/Form -->
  <rect x="140" y="60" width="220" height="280" rx="8" fill="#ffffff" stroke="#e0e0e0" stroke-width="2" />
  
  <!-- Form header -->
  <rect x="160" y="80" width="180" height="20" rx="4" fill="#6c5ce7" opacity="0.8" />
  
  <!-- Form fields -->
  <rect x="160" y="120" width="80" height="25" rx="4" fill="#f5f5f5" />
  <rect x="250" y="120" width="80" height="25" rx="4" fill="#f5f5f5" />
  <rect x="160" y="160" width="170" height="25" rx="4" fill="#f5f5f5" />
  <rect x="160" y="200" width="170" height="25" rx="4" fill="#f5f5f5" />
  <rect x="160" y="240" width="170" height="25" rx="4" fill="#f5f5f5" />
  
  <!-- Submit button -->
  <rect x="180" y="290" width="130" height="30" rx="15" fill="#8a3ab9" />
  
  <!-- Pencil -->
  <polygon points="380,80 390,90 365,115 355,105" fill="#ffb8b8" />
  <rect x="350" y="105" width="20" height="10" transform="rotate(45 350 105)" fill="#6c5ce7" />
  <polygon points="365,115 355,105 360,125" fill="#6c5ce7" />
  
  <!-- Decorative elements -->
  <circle cx="400" cy="180" r="15" fill="#74b9ff" />
  <rect x="70" y="170" width="30" height="30" rx="5" transform="rotate(15 70 170)" fill="#ff7675" />
  <path d="M90,270 L110,250 L130,270 L110,290 Z" fill="#55efc4" />
  
  <!-- Tiny person -->
  <circle cx="90" cy="120" r="15" fill="#8a3ab9" opacity="0.9" />
  <rect x="75" y="140" width="30" height="40" rx="10" fill="#8a3ab9" opacity="0.9" />
  <line x1="75" y1="150" x2="55" y2="160" stroke="#8a3ab9" stroke-width="5" stroke-linecap="round" />
  <line x1="105" y1="150" x2="125" y2="160" stroke="#8a3ab9" stroke-width="5" stroke-linecap="round" />
</svg> 